<svg width="152" height="16" viewBox="0 0 152 16" fill="none" xmlns="http://www.w3.org/2000/svg">
<path d="M9.24915 4.92697C9.02966 3.77323 8.51995 2.81392 7.72001 2.04906C6.92003 1.28469 6.02094 0.902261 5.02275 0.902261C4.23697 0.902261 3.62461 1.07934 3.18569 1.4335C2.74677 1.78022 2.52731 2.27227 2.52731 2.90916C2.52731 3.47561 2.79633 3.99594 3.33436 4.47013C3.87239 4.94483 4.73252 5.41555 5.91475 5.8828C7.42974 6.48447 8.5695 7.20321 9.33406 8.03851C10.0916 8.8738 10.4703 9.8222 10.4703 10.8842C10.4703 12.279 9.98891 13.4045 9.02613 14.2611C8.0704 15.1108 6.80674 15.5354 5.23515 15.5354C4.00335 15.5354 2.87774 15.3265 1.85832 14.9089C1.60347 14.8027 1.35215 14.8132 1.10437 14.9406C0.856598 15.0612 0.697311 15.2556 0.626519 15.5249L0.594664 15.6415H0V10.0137H0.594664C0.764566 11.3584 1.28843 12.4769 2.16627 13.3692C3.04411 14.2541 4.06707 14.6966 5.23515 14.6966C6.02095 14.6966 6.65808 14.4769 7.14656 14.0379C7.64214 13.5989 7.8899 13.0295 7.8899 12.3286C7.8899 11.7552 7.62443 11.2274 7.09349 10.7463C6.5625 10.2721 5.71654 9.80484 4.55554 9.34453C3.11136 8.77113 2.02469 8.0772 1.29552 7.26323C0.566346 6.4562 0.20176 5.53559 0.20176 4.50238C0.20176 3.15022 0.644217 2.06344 1.52913 1.24203C2.41405 0.41368 3.57859 0 5.02275 0C5.90061 0.00694429 6.81383 0.204856 7.76247 0.594232C8.1023 0.736094 8.39609 0.767839 8.64385 0.689964C8.89161 0.605144 9.07569 0.417648 9.19602 0.12698L9.24915 0H9.84377V4.92697H9.24915Z" fill="white"/>
<path d="M11.2773 15.2382V14.8201H11.4118C11.846 14.8201 12.1528 14.7328 12.3321 14.5582C12.5115 14.3791 12.6012 14.0746 12.6012 13.645V6.87038C12.6012 6.44082 12.5115 6.13875 12.3321 5.96415C12.1528 5.78459 11.8437 5.6953 11.4047 5.6953H11.2703V5.27716H19.7159V8.27907H19.3194C19.1354 7.32076 18.8144 6.68139 18.3567 6.36047C17.9035 6.03954 17.0847 5.87933 15.9001 5.87933H15.801C15.4707 5.87933 15.2488 5.93588 15.1356 6.04897C15.027 6.1576 14.9727 6.37684 14.9727 6.70719V9.83658H15.1497C15.8529 9.83658 16.3485 9.69472 16.6364 9.41149C16.9243 9.12876 17.1485 8.55982 17.3089 7.70568H17.7053V12.654H17.3089C17.139 11.7666 16.9101 11.1743 16.6222 10.8772C16.3343 10.5796 15.8435 10.4313 15.1497 10.4313H14.9727V13.5954C14.9727 14.025 15.0435 14.3107 15.1851 14.4521C15.3267 14.5939 15.6098 14.6624 16.0346 14.6574C17.1107 14.6529 17.9177 14.4828 18.4558 14.148C18.9985 13.8082 19.5389 13.1307 20.0769 12.1158L20.4238 12.1867L20.1123 13.709L19.7937 15.2382H11.2773Z" fill="white"/>
<path d="M26.7455 15.4361C25.0606 15.4361 23.725 14.9713 22.7386 14.0418C21.7569 13.1117 21.2661 11.8519 21.2661 10.2611C21.2661 8.76958 21.7286 7.5335 22.6536 6.55138C23.5787 5.56976 24.7397 5.07919 26.1366 5.07919C27.1986 5.07919 28.1424 5.27958 28.9684 5.68086C29.1288 5.76122 29.287 5.77064 29.4427 5.70914C29.6032 5.64763 29.7188 5.53454 29.7896 5.36936L29.9099 5.07919H30.3064V8.56225H29.9099C29.5843 7.65106 29.1076 6.94324 28.4799 6.43829C27.8569 5.93334 27.1419 5.68086 26.3349 5.68086C25.5467 5.68086 24.9308 6.08661 24.4872 6.8986C24.0482 7.70562 23.8288 8.83804 23.8288 10.2963C23.8288 11.8117 24.0624 12.9585 24.5296 13.7372C24.9969 14.511 25.686 14.8979 26.5968 14.8979L26.8092 14.891C27.2575 14.8771 27.5714 14.766 27.7507 14.5581C27.9348 14.3508 28.0268 13.9991 28.0268 13.5036V12.5051C28.0268 12.0761 27.9206 11.774 27.7083 11.5994C27.5006 11.4198 27.1419 11.33 26.6322 11.33H26.4765V10.9551H31.7222V11.33H31.5878C31.1535 11.33 30.8468 11.4198 30.6674 11.5994C30.4881 11.774 30.3984 12.0761 30.3984 12.5051V14.7139C29.3554 15.1906 28.1377 15.4316 26.7455 15.4361Z" fill="white"/>
<path d="M41.053 11.5781C41.053 12.8524 40.7297 13.8152 40.0831 14.4664C39.4365 15.1127 38.4761 15.4362 37.2018 15.4362C35.9275 15.4362 34.9648 15.146 34.3135 14.5656C33.6669 13.9803 33.3436 13.1118 33.3436 11.96V6.87038C33.3436 6.44082 33.2539 6.13875 33.0746 5.96415C32.8953 5.78459 32.5861 5.6953 32.1472 5.6953H32.0127V5.27716H37.039V5.6953H36.9045C36.4703 5.6953 36.1635 5.78459 35.9842 5.96415C35.8048 6.13875 35.7152 6.44082 35.7152 6.87038V12.1302C35.7152 12.9655 35.8969 13.6004 36.2603 14.0344C36.6237 14.4689 37.1523 14.6857 37.846 14.6857C38.7144 14.6857 39.3658 14.4193 39.7999 13.8861C40.2341 13.3524 40.4512 12.5528 40.4512 11.4858V7.22404C40.4512 6.69578 40.3616 6.31831 40.1822 6.09163C40.0029 5.86048 39.6937 5.72804 39.2548 5.6953H39.1203V5.27716H42.306V5.6953H42.1786C41.768 5.72804 41.4777 5.86048 41.3078 6.09163C41.1379 6.31831 41.053 6.69578 41.053 7.22404V11.5781Z" fill="white"/>
<path d="M44.5501 13.2914C44.5501 13.8196 44.6398 14.1996 44.8191 14.4307C44.9985 14.6574 45.3076 14.7874 45.7465 14.8201H45.881V15.2382H42.6245V14.8201H42.759C43.1932 14.7874 43.5 14.6574 43.6793 14.4307C43.8587 14.1996 43.9484 13.8196 43.9484 13.2914V6.75679C43.6369 6.38874 43.382 6.12436 43.1838 5.96415C42.9667 5.78459 42.7708 5.6953 42.5962 5.6953H42.5466V5.27716H45.6899L50.8366 11.5781V7.22404C50.8366 6.69578 50.7468 6.31831 50.5673 6.09163C50.3882 5.86048 50.0792 5.72804 49.6402 5.6953H49.5056V5.27716H52.7622V5.6953H52.6278C52.1932 5.72804 51.8867 5.86048 51.7071 6.09163C51.5281 6.31831 51.4383 6.69578 51.4383 7.22404V15.4644H51.0559L44.5501 7.48594V13.2914Z" fill="white"/>
<path d="M65.5083 15.5354C63.2782 15.5354 61.4271 14.7993 59.9544 13.3266C58.4822 11.8539 57.7461 10.0027 57.7461 7.77264C57.7461 5.53559 58.4822 3.68097 59.9544 2.20828C61.4271 0.736092 63.2782 0 65.5083 0C67.7454 0 69.6 0.736092 71.0727 2.20828C72.5454 3.68097 73.2815 5.53559 73.2815 7.77264C73.2815 10.0027 72.5454 11.8539 71.0727 13.3266C69.6 14.7993 67.7454 15.5354 65.5083 15.5354ZM65.5083 14.6326C66.7895 14.6326 67.7806 14.0309 68.4815 12.8276C69.1898 11.6242 69.5434 9.93926 69.5434 7.77264C69.5434 5.59957 69.1898 3.91112 68.4815 2.70778C67.7806 1.50393 66.7895 0.902261 65.5083 0.902261C64.241 0.902261 63.2534 1.50393 62.5456 2.70778C61.8378 3.91112 61.4836 5.59957 61.4836 7.77264C61.4836 9.93926 61.8378 11.6242 62.5456 12.8276C63.2534 14.0309 64.241 14.6326 65.5083 14.6326Z" fill="white"/>
<path d="M78.2053 15.4644L75.2321 6.87038C75.0858 6.44082 74.9325 6.13875 74.7718 5.96415C74.6116 5.78459 74.4087 5.6953 74.1632 5.6953H74.0923V5.27716H78.425V5.6953H78.3045C77.9315 5.6953 77.6864 5.79401 77.5684 5.99242C77.4503 6.18587 77.4598 6.47852 77.5967 6.87038L79.2955 11.9318L81.0584 7.43683L80.86 6.87038C80.7137 6.44082 80.5485 6.13875 80.3645 5.96415C80.1854 5.78459 79.9493 5.6953 79.6566 5.6953H79.5649V5.27716H84.0177V5.6953H83.8832C83.482 5.6953 83.2126 5.79401 83.0762 5.99242C82.9438 6.18587 82.9462 6.47852 83.0831 6.87038L84.7681 11.9248L86.2899 7.45766C86.5022 6.84409 86.5612 6.40561 86.467 6.14123C86.3772 5.87685 86.1153 5.72804 85.6813 5.6953H85.5469V5.27716H88.1872V5.6953H88.1237C87.8876 5.733 87.6942 5.83915 87.5429 6.01375C87.3966 6.18835 87.2552 6.47356 87.1183 6.87038L84.1521 15.4644H83.7696L81.3768 8.40655L78.5877 15.4644H78.2053Z" fill="white"/>
<path d="M93.9782 15.4361C92.4916 15.4361 91.257 14.9455 90.2754 13.9639C89.2938 12.9818 88.8032 11.7477 88.8032 10.2611C88.8032 8.76958 89.2938 7.5335 90.2754 6.55138C91.257 5.56976 92.4916 5.07919 93.9782 5.07919C95.4692 5.07919 96.7058 5.56976 97.6874 6.55138C98.6691 7.5335 99.1601 8.76958 99.1601 10.2611C99.1601 11.7477 98.6691 12.9818 97.6874 13.9639C96.7058 14.9455 95.4692 15.4361 93.9782 15.4361ZM93.9782 14.8344C94.8324 14.8344 95.4931 14.4332 95.9603 13.6311C96.432 12.8285 96.6681 11.7055 96.6681 10.2611C96.6681 8.81224 96.432 7.68677 95.9603 6.88421C95.4931 6.08215 94.8324 5.68086 93.9782 5.68086C93.1335 5.68086 92.4748 6.08215 92.003 6.88421C91.5308 7.68677 91.2952 8.81224 91.2952 10.2611C91.2952 11.7055 91.5308 12.8285 92.003 13.6311C92.4748 14.4332 93.1335 14.8344 93.9782 14.8344Z" fill="white"/>
<path d="M99.7899 15.2382V14.8201H99.9243C100.359 14.8201 100.665 14.7328 100.845 14.5582C101.024 14.3791 101.114 14.0746 101.114 13.645V6.87038C101.114 6.44082 101.024 6.13875 100.845 5.96415C100.665 5.78459 100.356 5.6953 99.9174 5.6953H99.783V5.27716H108.229V8.27907H107.832C107.648 7.32076 107.327 6.68139 106.869 6.36047C106.416 6.03954 105.597 5.87933 104.413 5.87933H104.314C103.983 5.87933 103.762 5.93588 103.648 6.04897C103.54 6.1576 103.485 6.37684 103.485 6.70719V9.83658H103.662C104.366 9.83658 104.861 9.69472 105.149 9.41149C105.437 9.12876 105.661 8.55982 105.822 7.70568H106.218V12.654H105.822C105.652 11.7666 105.423 11.1743 105.135 10.8772C104.847 10.5796 104.356 10.4313 103.662 10.4313H103.485V13.5954C103.485 14.025 103.556 14.3107 103.698 14.4521C103.839 14.5939 104.123 14.6624 104.547 14.6574C105.624 14.6529 106.431 14.4828 106.968 14.148C107.511 13.8082 108.052 13.1307 108.59 12.1158L108.937 12.1867L108.625 13.709L108.307 15.2382H99.7899Z" fill="white"/>
<path d="M113.283 11.2666L110.855 6.87038C110.61 6.44082 110.388 6.13875 110.189 5.96415C109.996 5.78459 109.781 5.6953 109.545 5.6953H109.475V5.27716H114.359V5.6953H114.211C113.767 5.6953 113.47 5.76376 113.318 5.90016C113.167 6.03706 113.163 6.24241 113.304 6.51622L115.237 10.41L117.021 7.45766C117.389 6.85351 117.53 6.41949 117.446 6.15512C117.361 5.89074 117.03 5.73747 116.455 5.6953H116.271V5.27716H119.563V5.6953H119.499C119.272 5.70919 119.06 5.80592 118.862 5.98547C118.663 6.16007 118.432 6.45471 118.168 6.87038L115.655 10.9621V13.645C115.655 14.0746 115.744 14.3791 115.924 14.5582C116.103 14.7328 116.412 14.8201 116.851 14.8201H116.985V15.2382H111.959V14.8201H112.094C112.528 14.8201 112.835 14.7328 113.014 14.5582C113.193 14.3791 113.283 14.0746 113.283 13.645V11.2666Z" fill="white"/>
<path d="M119.853 15.2382V14.8201H119.987C120.421 14.8201 120.728 14.7328 120.907 14.5582C121.087 14.3791 121.177 14.0746 121.177 13.645V6.87038C121.177 6.44082 121.087 6.13875 120.907 5.96415C120.728 5.78459 120.419 5.6953 119.98 5.6953H119.845V5.27716H128.291V8.27907H127.895C127.711 7.32076 127.39 6.68139 126.932 6.36047C126.479 6.03954 125.66 5.87933 124.475 5.87933H124.377C124.046 5.87933 123.824 5.93588 123.711 6.04897C123.602 6.1576 123.548 6.37684 123.548 6.70719V9.83658H123.725C124.428 9.83658 124.924 9.69472 125.212 9.41149C125.5 9.12876 125.724 8.55982 125.885 7.70568H126.281V12.654H125.885C125.714 11.7666 125.486 11.1743 125.198 10.8772C124.91 10.5796 124.419 10.4313 123.725 10.4313H123.548V13.5954C123.548 14.025 123.619 14.3107 123.761 14.4521C123.902 14.5939 124.185 14.6624 124.61 14.6574C125.686 14.6529 126.493 14.4828 127.031 14.148C127.574 13.8082 128.114 13.1307 128.652 12.1158L128.999 12.1867L128.688 13.709L128.369 15.2382H119.853Z" fill="white"/>
<path d="M133.87 15.2382V14.8201H134.004C134.438 14.8201 134.745 14.7328 134.925 14.5582C135.104 14.3791 135.194 14.0746 135.194 13.645V6.87038C135.194 6.44082 135.104 6.13875 134.925 5.96415C134.745 5.78459 134.436 5.6953 133.997 5.6953H133.863V5.27716H138.889V5.6953H138.755C138.32 5.6953 138.014 5.78459 137.834 5.96415C137.655 6.13875 137.565 6.44082 137.565 6.87038V13.8573C137.565 14.1782 137.617 14.393 137.721 14.5017C137.83 14.6058 138.044 14.6574 138.365 14.6574H138.386C139.576 14.6574 140.447 14.464 140.999 14.0771C141.551 13.6852 142.058 12.904 142.521 11.7339L142.917 11.8187L142.209 15.2382H133.87Z" fill="white"/>
<path d="M144.765 13.645V6.87038C144.765 6.44082 144.675 6.13875 144.496 5.96415C144.317 5.78459 144.007 5.6953 143.569 5.6953H143.434V5.27716H147.844C149.203 5.27716 150.235 5.51326 150.938 5.98547C151.646 6.45273 152 7.13922 152 8.04545C152 8.95168 151.646 9.63817 150.938 10.1054C150.235 10.5727 149.203 10.8063 147.844 10.8063H147.136V13.645C147.136 14.0746 147.226 14.3791 147.405 14.5582C147.585 14.7328 147.894 14.8201 148.333 14.8201H148.467V15.2382H143.441V14.8201H143.575C144.009 14.8201 144.317 14.7308 144.496 14.5513C144.675 14.3767 144.765 14.0746 144.765 13.645ZM147.136 10.2046H147.844C148.439 10.2046 148.864 10.037 149.118 9.70216C149.378 9.36685 149.508 8.81478 149.508 8.04545C149.508 7.31878 149.368 6.77564 149.09 6.41701C148.816 6.05839 148.401 5.87933 147.844 5.87933C147.561 5.87933 147.372 5.92645 147.278 6.02069C147.184 6.11494 147.136 6.30392 147.136 6.58715V10.2046Z" fill="white"/>
</svg>
