<svg width="139" height="112" viewBox="0 0 139 112" fill="none" xmlns="http://www.w3.org/2000/svg">
<circle cx="92.5" cy="46.5" r="46.5" fill="#FFF7DB"/>
<mask id="path-2-outside-1" maskUnits="userSpaceOnUse" x="0" y="18.1917" width="102" height="93" fill="black">
<rect fill="white" y="18.1917" width="102" height="93"/>
<path d="M99.9359 77.0963C98.0338 74.301 94.2033 73.5612 91.3994 75.4456L78.6377 83.9862L78.6006 57.4022L83.0342 61.5555C83.977 62.4385 85.2062 62.9245 86.4969 62.9245C86.4992 62.9245 86.502 62.9245 86.5045 62.9245C87.8979 62.9225 89.2432 62.3385 90.1955 61.3219C91.1207 60.3342 91.6061 59.0456 91.5619 57.6928C91.5178 56.3401 90.9494 55.0856 89.9617 54.1604L81.5564 46.2866C80.9811 45.7475 80.0777 45.777 79.5389 46.3524C79 46.9278 79.0295 47.8309 79.6047 48.37L88.01 56.2438C88.4412 56.6477 88.6893 57.1954 88.7086 57.7858C88.7277 58.3762 88.516 58.9389 88.1119 59.37C87.69 59.8204 87.1178 60.0688 86.5002 60.0696C86.499 60.0696 86.498 60.0696 86.4969 60.0696C85.9338 60.0696 85.3973 59.8575 84.9857 59.4719L78.1447 53.0635C78.1445 53.0633 78.1443 53.0631 78.1443 53.0631L51.6102 28.2063C51.0602 27.6913 50.2043 27.692 49.6557 28.209L23.1922 53.1383C23.192 53.1385 23.192 53.1387 23.1918 53.1387L16.367 59.5678C15.9371 59.9729 15.375 60.185 14.7844 60.1686C14.1937 60.151 13.6455 59.9044 13.2404 59.4741C12.8354 59.0442 12.6219 58.4821 12.6396 57.8917C12.6572 57.301 12.9039 56.7528 13.3338 56.3477L49.1105 22.6452C49.9586 21.8461 51.2891 21.8442 52.1393 22.6411L73.0703 42.2489C73.6455 42.7878 74.5488 42.7585 75.0879 42.1831C75.6268 41.6077 75.5973 40.7045 75.0221 40.1655L54.0912 20.5577C52.1434 18.7327 49.0959 18.7368 47.1531 20.5672L35.7002 31.3563L35.6971 29.4319C35.6963 28.8252 35.4592 28.2553 35.0297 27.8272C34.601 27.3997 34.0318 27.1643 33.4264 27.1643C33.4252 27.1643 33.4242 27.1643 33.423 27.1643L25.2303 27.1758C24.6236 27.1766 24.0539 27.4137 23.6256 27.8432C23.1975 28.2727 22.9619 28.8432 22.9629 29.4501L22.9855 43.3342L11.3764 54.2704C10.3912 55.1983 9.82656 56.4543 9.78613 57.8071C9.7457 59.1598 10.2346 60.4473 11.1625 61.4321C12.0902 62.4172 13.3463 62.9821 14.6992 63.0225C14.751 63.0241 14.8027 63.0249 14.8545 63.0249C16.1504 63.0249 17.3775 62.5385 18.3246 61.646L22.7482 57.4788L22.7658 70.0356C21.3346 69.8272 19.8865 69.7178 18.4318 69.7178H15.9895V68.862C15.9895 65.9887 13.6518 63.651 10.7785 63.651H6.21094C3.3377 63.6508 1 65.9883 1 68.8618V91.2286C1 92.0169 1.63906 92.6559 2.42734 92.6559C3.21563 92.6559 3.85469 92.0169 3.85469 91.2286V68.8618C3.85469 67.5626 4.91172 66.5055 6.21094 66.5055H10.7783C12.0775 66.5055 13.1346 67.5626 13.1346 68.8618V71.145V100.402V102.663C13.1346 103.962 12.0775 105.019 10.7783 105.019H6.21094C4.91172 105.019 3.85469 103.962 3.85469 102.663V100.165C3.85469 99.3768 3.21563 98.7377 2.42734 98.7377C1.63906 98.7377 1 99.3768 1 100.165V102.663C1 105.536 3.3377 107.874 6.21094 107.874H10.7783C13.6516 107.874 15.9893 105.536 15.9893 102.663V102.469L36.8924 110.384C36.9311 110.399 36.9703 110.412 37.0102 110.423C37.9189 110.68 38.8273 110.808 39.7242 110.808C40.2094 110.808 40.6912 110.771 41.1682 110.695L71.8871 106.267C71.8943 106.266 71.9014 106.265 71.9086 106.264C74.5203 105.847 76.9842 104.743 79.0336 103.071C79.0514 103.057 79.0689 103.042 79.0859 103.026L98.9318 85.1772C101.243 83.1254 101.674 79.6514 99.9359 77.0963ZM32.8432 30.02L32.8498 34.0415L25.8357 40.6489L25.8184 30.0295L32.8432 30.02ZM25.6213 70.5893L25.5992 54.7928L50.6369 31.2063L75.742 54.7243L75.7855 85.8948L71.7443 88.5995L67.4648 88.3594L67.3518 87.2227C66.9535 83.2192 63.998 79.9987 60.09 79.2301L60.0643 60.6862C60.0623 59.2631 58.9037 58.1067 57.4809 58.1067C57.4797 58.1067 57.4787 58.1067 57.4773 58.1067L43.873 58.1258C43.183 58.1268 42.5346 58.3963 42.0475 58.885C41.5602 59.3735 41.2924 60.0227 41.2934 60.7126L41.316 76.8807C38.6213 76.2647 36.0482 75.2473 33.6426 73.8401C33.3424 73.6645 33.0393 73.495 32.7336 73.3301C32.6145 73.2659 32.4934 73.2055 32.3732 73.1428C32.1873 73.0458 32.0018 72.9481 31.8139 72.8549C31.6643 72.7807 31.5129 72.7104 31.3621 72.6387C31.2021 72.5627 31.0424 72.486 30.8813 72.4128C30.7172 72.3383 30.5518 72.2674 30.3865 72.1959C30.2355 72.1307 30.0846 72.0651 29.9326 72.0024C29.7627 71.9323 29.5918 71.8649 29.4207 71.7979C29.2689 71.7385 29.117 71.6796 28.9645 71.6225C28.7951 71.5592 28.625 71.4981 28.4545 71.4381C28.2945 71.3817 28.1344 71.3266 27.9734 71.2729C27.8102 71.2184 27.6465 71.1651 27.482 71.1133C27.3068 71.0581 27.1309 71.0053 26.9547 70.9532C26.8033 70.9086 26.6521 70.8641 26.5 70.8219C26.3014 70.7667 26.1018 70.7149 25.902 70.6637C25.8084 70.6397 25.7154 70.6126 25.6213 70.5893ZM44.1486 60.9801L57.21 60.9618L57.235 78.8729L45.2965 77.4985L44.1717 77.369L44.1486 60.9801ZM97.0299 83.0489L77.2035 100.881C75.5514 102.22 73.5695 103.106 71.4689 103.443L40.7633 107.87C40.7568 107.871 40.7506 107.872 40.7441 107.873L40.7229 107.876C39.7926 108.023 38.8238 107.961 37.8432 107.692L15.9895 99.4161V72.5723H18.4318C20.5109 72.5723 22.576 72.8124 24.5869 73.2786C24.6617 73.296 24.7363 73.3137 24.8109 73.3317C25.058 73.3913 25.3045 73.4526 25.5498 73.519C25.5713 73.5249 25.5926 73.5311 25.6141 73.537C25.86 73.6042 26.1049 73.6751 26.349 73.7491C26.3928 73.7624 26.4367 73.7754 26.4803 73.7889C26.74 73.8692 26.9986 73.953 27.2559 74.0409C27.2824 74.0501 27.3088 74.0594 27.3354 74.0686C27.8711 74.2536 28.4016 74.4553 28.9254 74.6737C28.9539 74.6856 28.9824 74.6975 29.0109 74.7096C29.2721 74.8194 29.5316 74.9329 29.7895 75.0508C29.7963 75.054 29.8033 75.0573 29.8102 75.0606C30.0594 75.1751 30.3068 75.2938 30.5527 75.4159C30.5816 75.4301 30.6107 75.4442 30.6396 75.4586C30.8799 75.5788 31.1182 75.7032 31.3551 75.8305C31.3998 75.8545 31.4443 75.8792 31.4891 75.9034C31.7281 76.0336 31.9658 76.1665 32.2012 76.3042C35.5979 78.2911 39.2955 79.578 43.1916 80.1294C43.2039 80.1311 43.216 80.1327 43.2283 80.134L59.2207 81.9753C59.3092 81.9879 59.3971 82.0026 59.4844 82.019C61.8387 82.4612 63.6969 84.2008 64.3186 86.4663C64.4107 86.8018 64.4756 87.1491 64.5111 87.5051L64.5746 88.1438L34.602 85.5178C33.8172 85.4493 33.1242 86.0299 33.0555 86.8151C32.9865 87.6004 33.5676 88.2928 34.3527 88.3616L66.0406 91.1379C66.0482 91.1385 66.0557 91.1383 66.0631 91.1389C66.0705 91.1395 66.0777 91.1407 66.0854 91.1413L72.0613 91.4766C72.0881 91.4782 72.1146 91.4788 72.1412 91.4788C72.1695 91.4788 72.1975 91.4743 72.2256 91.4725C72.2574 91.4706 72.2893 91.4694 72.3209 91.4655C72.3635 91.46 72.4051 91.4508 72.4469 91.4417C72.4768 91.435 72.5068 91.4301 72.5361 91.4215C72.5818 91.4085 72.6258 91.3907 72.6701 91.3729C72.6939 91.3633 72.7186 91.3561 72.742 91.3452C72.8086 91.3143 72.8734 91.2788 72.9352 91.2374L78.0078 87.8426C78.008 87.8424 78.0082 87.8422 78.0084 87.842L92.9893 77.8163C94.4965 76.8032 96.5539 77.2006 97.5756 78.7022C98.5096 80.0745 98.2777 81.9407 97.0299 83.0489Z"/>
</mask>
<path d="M99.9359 77.0963C98.0338 74.301 94.2033 73.5612 91.3994 75.4456L78.6377 83.9862L78.6006 57.4022L83.0342 61.5555C83.977 62.4385 85.2062 62.9245 86.4969 62.9245C86.4992 62.9245 86.502 62.9245 86.5045 62.9245C87.8979 62.9225 89.2432 62.3385 90.1955 61.3219C91.1207 60.3342 91.6061 59.0456 91.5619 57.6928C91.5178 56.3401 90.9494 55.0856 89.9617 54.1604L81.5564 46.2866C80.9811 45.7475 80.0777 45.777 79.5389 46.3524C79 46.9278 79.0295 47.8309 79.6047 48.37L88.01 56.2438C88.4412 56.6477 88.6893 57.1954 88.7086 57.7858C88.7277 58.3762 88.516 58.9389 88.1119 59.37C87.69 59.8204 87.1178 60.0688 86.5002 60.0696C86.499 60.0696 86.498 60.0696 86.4969 60.0696C85.9338 60.0696 85.3973 59.8575 84.9857 59.4719L78.1447 53.0635C78.1445 53.0633 78.1443 53.0631 78.1443 53.0631L51.6102 28.2063C51.0602 27.6913 50.2043 27.692 49.6557 28.209L23.1922 53.1383C23.192 53.1385 23.192 53.1387 23.1918 53.1387L16.367 59.5678C15.9371 59.9729 15.375 60.185 14.7844 60.1686C14.1937 60.151 13.6455 59.9044 13.2404 59.4741C12.8354 59.0442 12.6219 58.4821 12.6396 57.8917C12.6572 57.301 12.9039 56.7528 13.3338 56.3477L49.1105 22.6452C49.9586 21.8461 51.2891 21.8442 52.1393 22.6411L73.0703 42.2489C73.6455 42.7878 74.5488 42.7585 75.0879 42.1831C75.6268 41.6077 75.5973 40.7045 75.0221 40.1655L54.0912 20.5577C52.1434 18.7327 49.0959 18.7368 47.1531 20.5672L35.7002 31.3563L35.6971 29.4319C35.6963 28.8252 35.4592 28.2553 35.0297 27.8272C34.601 27.3997 34.0318 27.1643 33.4264 27.1643C33.4252 27.1643 33.4242 27.1643 33.423 27.1643L25.2303 27.1758C24.6236 27.1766 24.0539 27.4137 23.6256 27.8432C23.1975 28.2727 22.9619 28.8432 22.9629 29.4501L22.9855 43.3342L11.3764 54.2704C10.3912 55.1983 9.82656 56.4543 9.78613 57.8071C9.7457 59.1598 10.2346 60.4473 11.1625 61.4321C12.0902 62.4172 13.3463 62.9821 14.6992 63.0225C14.751 63.0241 14.8027 63.0249 14.8545 63.0249C16.1504 63.0249 17.3775 62.5385 18.3246 61.646L22.7482 57.4788L22.7658 70.0356C21.3346 69.8272 19.8865 69.7178 18.4318 69.7178H15.9895V68.862C15.9895 65.9887 13.6518 63.651 10.7785 63.651H6.21094C3.3377 63.6508 1 65.9883 1 68.8618V91.2286C1 92.0169 1.63906 92.6559 2.42734 92.6559C3.21563 92.6559 3.85469 92.0169 3.85469 91.2286V68.8618C3.85469 67.5626 4.91172 66.5055 6.21094 66.5055H10.7783C12.0775 66.5055 13.1346 67.5626 13.1346 68.8618V71.145V100.402V102.663C13.1346 103.962 12.0775 105.019 10.7783 105.019H6.21094C4.91172 105.019 3.85469 103.962 3.85469 102.663V100.165C3.85469 99.3768 3.21563 98.7377 2.42734 98.7377C1.63906 98.7377 1 99.3768 1 100.165V102.663C1 105.536 3.3377 107.874 6.21094 107.874H10.7783C13.6516 107.874 15.9893 105.536 15.9893 102.663V102.469L36.8924 110.384C36.9311 110.399 36.9703 110.412 37.0102 110.423C37.9189 110.68 38.8273 110.808 39.7242 110.808C40.2094 110.808 40.6912 110.771 41.1682 110.695L71.8871 106.267C71.8943 106.266 71.9014 106.265 71.9086 106.264C74.5203 105.847 76.9842 104.743 79.0336 103.071C79.0514 103.057 79.0689 103.042 79.0859 103.026L98.9318 85.1772C101.243 83.1254 101.674 79.6514 99.9359 77.0963ZM32.8432 30.02L32.8498 34.0415L25.8357 40.6489L25.8184 30.0295L32.8432 30.02ZM25.6213 70.5893L25.5992 54.7928L50.6369 31.2063L75.742 54.7243L75.7855 85.8948L71.7443 88.5995L67.4648 88.3594L67.3518 87.2227C66.9535 83.2192 63.998 79.9987 60.09 79.2301L60.0643 60.6862C60.0623 59.2631 58.9037 58.1067 57.4809 58.1067C57.4797 58.1067 57.4787 58.1067 57.4773 58.1067L43.873 58.1258C43.183 58.1268 42.5346 58.3963 42.0475 58.885C41.5602 59.3735 41.2924 60.0227 41.2934 60.7126L41.316 76.8807C38.6213 76.2647 36.0482 75.2473 33.6426 73.8401C33.3424 73.6645 33.0393 73.495 32.7336 73.3301C32.6145 73.2659 32.4934 73.2055 32.3732 73.1428C32.1873 73.0458 32.0018 72.9481 31.8139 72.8549C31.6643 72.7807 31.5129 72.7104 31.3621 72.6387C31.2021 72.5627 31.0424 72.486 30.8813 72.4128C30.7172 72.3383 30.5518 72.2674 30.3865 72.1959C30.2355 72.1307 30.0846 72.0651 29.9326 72.0024C29.7627 71.9323 29.5918 71.8649 29.4207 71.7979C29.2689 71.7385 29.117 71.6796 28.9645 71.6225C28.7951 71.5592 28.625 71.4981 28.4545 71.4381C28.2945 71.3817 28.1344 71.3266 27.9734 71.2729C27.8102 71.2184 27.6465 71.1651 27.482 71.1133C27.3068 71.0581 27.1309 71.0053 26.9547 70.9532C26.8033 70.9086 26.6521 70.8641 26.5 70.8219C26.3014 70.7667 26.1018 70.7149 25.902 70.6637C25.8084 70.6397 25.7154 70.6126 25.6213 70.5893ZM44.1486 60.9801L57.21 60.9618L57.235 78.8729L45.2965 77.4985L44.1717 77.369L44.1486 60.9801ZM97.0299 83.0489L77.2035 100.881C75.5514 102.22 73.5695 103.106 71.4689 103.443L40.7633 107.87C40.7568 107.871 40.7506 107.872 40.7441 107.873L40.7229 107.876C39.7926 108.023 38.8238 107.961 37.8432 107.692L15.9895 99.4161V72.5723H18.4318C20.5109 72.5723 22.576 72.8124 24.5869 73.2786C24.6617 73.296 24.7363 73.3137 24.8109 73.3317C25.058 73.3913 25.3045 73.4526 25.5498 73.519C25.5713 73.5249 25.5926 73.5311 25.6141 73.537C25.86 73.6042 26.1049 73.6751 26.349 73.7491C26.3928 73.7624 26.4367 73.7754 26.4803 73.7889C26.74 73.8692 26.9986 73.953 27.2559 74.0409C27.2824 74.0501 27.3088 74.0594 27.3354 74.0686C27.8711 74.2536 28.4016 74.4553 28.9254 74.6737C28.9539 74.6856 28.9824 74.6975 29.0109 74.7096C29.2721 74.8194 29.5316 74.9329 29.7895 75.0508C29.7963 75.054 29.8033 75.0573 29.8102 75.0606C30.0594 75.1751 30.3068 75.2938 30.5527 75.4159C30.5816 75.4301 30.6107 75.4442 30.6396 75.4586C30.8799 75.5788 31.1182 75.7032 31.3551 75.8305C31.3998 75.8545 31.4443 75.8792 31.4891 75.9034C31.7281 76.0336 31.9658 76.1665 32.2012 76.3042C35.5979 78.2911 39.2955 79.578 43.1916 80.1294C43.2039 80.1311 43.216 80.1327 43.2283 80.134L59.2207 81.9753C59.3092 81.9879 59.3971 82.0026 59.4844 82.019C61.8387 82.4612 63.6969 84.2008 64.3186 86.4663C64.4107 86.8018 64.4756 87.1491 64.5111 87.5051L64.5746 88.1438L34.602 85.5178C33.8172 85.4493 33.1242 86.0299 33.0555 86.8151C32.9865 87.6004 33.5676 88.2928 34.3527 88.3616L66.0406 91.1379C66.0482 91.1385 66.0557 91.1383 66.0631 91.1389C66.0705 91.1395 66.0777 91.1407 66.0854 91.1413L72.0613 91.4766C72.0881 91.4782 72.1146 91.4788 72.1412 91.4788C72.1695 91.4788 72.1975 91.4743 72.2256 91.4725C72.2574 91.4706 72.2893 91.4694 72.3209 91.4655C72.3635 91.46 72.4051 91.4508 72.4469 91.4417C72.4768 91.435 72.5068 91.4301 72.5361 91.4215C72.5818 91.4085 72.6258 91.3907 72.6701 91.3729C72.6939 91.3633 72.7186 91.3561 72.742 91.3452C72.8086 91.3143 72.8734 91.2788 72.9352 91.2374L78.0078 87.8426C78.008 87.8424 78.0082 87.8422 78.0084 87.842L92.9893 77.8163C94.4965 76.8032 96.5539 77.2006 97.5756 78.7022C98.5096 80.0745 98.2777 81.9407 97.0299 83.0489Z" fill="#5B4700"/>
<path d="M99.9359 77.0963C98.0338 74.301 94.2033 73.5612 91.3994 75.4456L78.6377 83.9862L78.6006 57.4022L83.0342 61.5555C83.977 62.4385 85.2062 62.9245 86.4969 62.9245C86.4992 62.9245 86.502 62.9245 86.5045 62.9245C87.8979 62.9225 89.2432 62.3385 90.1955 61.3219C91.1207 60.3342 91.6061 59.0456 91.5619 57.6928C91.5178 56.3401 90.9494 55.0856 89.9617 54.1604L81.5564 46.2866C80.9811 45.7475 80.0777 45.777 79.5389 46.3524C79 46.9278 79.0295 47.8309 79.6047 48.37L88.01 56.2438C88.4412 56.6477 88.6893 57.1954 88.7086 57.7858C88.7277 58.3762 88.516 58.9389 88.1119 59.37C87.69 59.8204 87.1178 60.0688 86.5002 60.0696C86.499 60.0696 86.498 60.0696 86.4969 60.0696C85.9338 60.0696 85.3973 59.8575 84.9857 59.4719L78.1447 53.0635C78.1445 53.0633 78.1443 53.0631 78.1443 53.0631L51.6102 28.2063C51.0602 27.6913 50.2043 27.692 49.6557 28.209L23.1922 53.1383C23.192 53.1385 23.192 53.1387 23.1918 53.1387L16.367 59.5678C15.9371 59.9729 15.375 60.185 14.7844 60.1686C14.1937 60.151 13.6455 59.9044 13.2404 59.4741C12.8354 59.0442 12.6219 58.4821 12.6396 57.8917C12.6572 57.301 12.9039 56.7528 13.3338 56.3477L49.1105 22.6452C49.9586 21.8461 51.2891 21.8442 52.1393 22.6411L73.0703 42.2489C73.6455 42.7878 74.5488 42.7585 75.0879 42.1831C75.6268 41.6077 75.5973 40.7045 75.0221 40.1655L54.0912 20.5577C52.1434 18.7327 49.0959 18.7368 47.1531 20.5672L35.7002 31.3563L35.6971 29.4319C35.6963 28.8252 35.4592 28.2553 35.0297 27.8272C34.601 27.3997 34.0318 27.1643 33.4264 27.1643C33.4252 27.1643 33.4242 27.1643 33.423 27.1643L25.2303 27.1758C24.6236 27.1766 24.0539 27.4137 23.6256 27.8432C23.1975 28.2727 22.9619 28.8432 22.9629 29.4501L22.9855 43.3342L11.3764 54.2704C10.3912 55.1983 9.82656 56.4543 9.78613 57.8071C9.7457 59.1598 10.2346 60.4473 11.1625 61.4321C12.0902 62.4172 13.3463 62.9821 14.6992 63.0225C14.751 63.0241 14.8027 63.0249 14.8545 63.0249C16.1504 63.0249 17.3775 62.5385 18.3246 61.646L22.7482 57.4788L22.7658 70.0356C21.3346 69.8272 19.8865 69.7178 18.4318 69.7178H15.9895V68.862C15.9895 65.9887 13.6518 63.651 10.7785 63.651H6.21094C3.3377 63.6508 1 65.9883 1 68.8618V91.2286C1 92.0169 1.63906 92.6559 2.42734 92.6559C3.21563 92.6559 3.85469 92.0169 3.85469 91.2286V68.8618C3.85469 67.5626 4.91172 66.5055 6.21094 66.5055H10.7783C12.0775 66.5055 13.1346 67.5626 13.1346 68.8618V71.145V100.402V102.663C13.1346 103.962 12.0775 105.019 10.7783 105.019H6.21094C4.91172 105.019 3.85469 103.962 3.85469 102.663V100.165C3.85469 99.3768 3.21563 98.7377 2.42734 98.7377C1.63906 98.7377 1 99.3768 1 100.165V102.663C1 105.536 3.3377 107.874 6.21094 107.874H10.7783C13.6516 107.874 15.9893 105.536 15.9893 102.663V102.469L36.8924 110.384C36.9311 110.399 36.9703 110.412 37.0102 110.423C37.9189 110.68 38.8273 110.808 39.7242 110.808C40.2094 110.808 40.6912 110.771 41.1682 110.695L71.8871 106.267C71.8943 106.266 71.9014 106.265 71.9086 106.264C74.5203 105.847 76.9842 104.743 79.0336 103.071C79.0514 103.057 79.0689 103.042 79.0859 103.026L98.9318 85.1772C101.243 83.1254 101.674 79.6514 99.9359 77.0963ZM32.8432 30.02L32.8498 34.0415L25.8357 40.6489L25.8184 30.0295L32.8432 30.02ZM25.6213 70.5893L25.5992 54.7928L50.6369 31.2063L75.742 54.7243L75.7855 85.8948L71.7443 88.5995L67.4648 88.3594L67.3518 87.2227C66.9535 83.2192 63.998 79.9987 60.09 79.2301L60.0643 60.6862C60.0623 59.2631 58.9037 58.1067 57.4809 58.1067C57.4797 58.1067 57.4787 58.1067 57.4773 58.1067L43.873 58.1258C43.183 58.1268 42.5346 58.3963 42.0475 58.885C41.5602 59.3735 41.2924 60.0227 41.2934 60.7126L41.316 76.8807C38.6213 76.2647 36.0482 75.2473 33.6426 73.8401C33.3424 73.6645 33.0393 73.495 32.7336 73.3301C32.6145 73.2659 32.4934 73.2055 32.3732 73.1428C32.1873 73.0458 32.0018 72.9481 31.8139 72.8549C31.6643 72.7807 31.5129 72.7104 31.3621 72.6387C31.2021 72.5627 31.0424 72.486 30.8813 72.4128C30.7172 72.3383 30.5518 72.2674 30.3865 72.1959C30.2355 72.1307 30.0846 72.0651 29.9326 72.0024C29.7627 71.9323 29.5918 71.8649 29.4207 71.7979C29.2689 71.7385 29.117 71.6796 28.9645 71.6225C28.7951 71.5592 28.625 71.4981 28.4545 71.4381C28.2945 71.3817 28.1344 71.3266 27.9734 71.2729C27.8102 71.2184 27.6465 71.1651 27.482 71.1133C27.3068 71.0581 27.1309 71.0053 26.9547 70.9532C26.8033 70.9086 26.6521 70.8641 26.5 70.8219C26.3014 70.7667 26.1018 70.7149 25.902 70.6637C25.8084 70.6397 25.7154 70.6126 25.6213 70.5893ZM44.1486 60.9801L57.21 60.9618L57.235 78.8729L45.2965 77.4985L44.1717 77.369L44.1486 60.9801ZM97.0299 83.0489L77.2035 100.881C75.5514 102.22 73.5695 103.106 71.4689 103.443L40.7633 107.87C40.7568 107.871 40.7506 107.872 40.7441 107.873L40.7229 107.876C39.7926 108.023 38.8238 107.961 37.8432 107.692L15.9895 99.4161V72.5723H18.4318C20.5109 72.5723 22.576 72.8124 24.5869 73.2786C24.6617 73.296 24.7363 73.3137 24.8109 73.3317C25.058 73.3913 25.3045 73.4526 25.5498 73.519C25.5713 73.5249 25.5926 73.5311 25.6141 73.537C25.86 73.6042 26.1049 73.6751 26.349 73.7491C26.3928 73.7624 26.4367 73.7754 26.4803 73.7889C26.74 73.8692 26.9986 73.953 27.2559 74.0409C27.2824 74.0501 27.3088 74.0594 27.3354 74.0686C27.8711 74.2536 28.4016 74.4553 28.9254 74.6737C28.9539 74.6856 28.9824 74.6975 29.0109 74.7096C29.2721 74.8194 29.5316 74.9329 29.7895 75.0508C29.7963 75.054 29.8033 75.0573 29.8102 75.0606C30.0594 75.1751 30.3068 75.2938 30.5527 75.4159C30.5816 75.4301 30.6107 75.4442 30.6396 75.4586C30.8799 75.5788 31.1182 75.7032 31.3551 75.8305C31.3998 75.8545 31.4443 75.8792 31.4891 75.9034C31.7281 76.0336 31.9658 76.1665 32.2012 76.3042C35.5979 78.2911 39.2955 79.578 43.1916 80.1294C43.2039 80.1311 43.216 80.1327 43.2283 80.134L59.2207 81.9753C59.3092 81.9879 59.3971 82.0026 59.4844 82.019C61.8387 82.4612 63.6969 84.2008 64.3186 86.4663C64.4107 86.8018 64.4756 87.1491 64.5111 87.5051L64.5746 88.1438L34.602 85.5178C33.8172 85.4493 33.1242 86.0299 33.0555 86.8151C32.9865 87.6004 33.5676 88.2928 34.3527 88.3616L66.0406 91.1379C66.0482 91.1385 66.0557 91.1383 66.0631 91.1389C66.0705 91.1395 66.0777 91.1407 66.0854 91.1413L72.0613 91.4766C72.0881 91.4782 72.1146 91.4788 72.1412 91.4788C72.1695 91.4788 72.1975 91.4743 72.2256 91.4725C72.2574 91.4706 72.2893 91.4694 72.3209 91.4655C72.3635 91.46 72.4051 91.4508 72.4469 91.4417C72.4768 91.435 72.5068 91.4301 72.5361 91.4215C72.5818 91.4085 72.6258 91.3907 72.6701 91.3729C72.6939 91.3633 72.7186 91.3561 72.742 91.3452C72.8086 91.3143 72.8734 91.2788 72.9352 91.2374L78.0078 87.8426C78.008 87.8424 78.0082 87.8422 78.0084 87.842L92.9893 77.8163C94.4965 76.8032 96.5539 77.2006 97.5756 78.7022C98.5096 80.0745 98.2777 81.9407 97.0299 83.0489Z" stroke="#5B4700" stroke-width="0.4" mask="url(#path-2-outside-1)"/>
</svg>
