<svg width="147" height="120" viewBox="0 0 147 120" fill="none" xmlns="http://www.w3.org/2000/svg">
<circle cx="100.5" cy="46.5" r="46.5" fill="#EFFFFF"/>
<path d="M14.9894 30.0643H19.9858V36.7262C19.9858 38.0513 20.5122 39.3222 21.4492 40.2592C22.3863 41.1962 23.6571 41.7226 24.9823 41.7226C26.3074 41.7226 27.5783 41.1962 28.5153 40.2592C29.4523 39.3222 29.9787 38.0513 29.9787 36.7262V33.3952H26.6477V36.7262C26.6477 37.1679 26.4723 37.5915 26.1599 37.9038C25.8476 38.2162 25.424 38.3917 24.9823 38.3917C24.5405 38.3917 24.1169 38.2162 23.8046 37.9038C23.4923 37.5915 23.3168 37.1679 23.3168 36.7262V26.7333C23.3168 25.8499 23.6677 25.0027 24.2924 24.378C24.9171 23.7533 25.7643 23.4024 26.6477 23.4024C27.5312 23.4024 28.3784 23.7533 29.0031 24.378C29.6277 25.0027 29.9787 25.8499 29.9787 26.7333H26.6477V30.0643H66.6192V40.0571C66.6192 40.4988 66.7946 40.9225 67.107 41.2348C67.4193 41.5471 67.8429 41.7226 68.2846 41.7226H78.2775V61.7083H81.6085V40.0571C81.6085 39.8384 81.5654 39.6218 81.4817 39.4198C81.398 39.2177 81.2753 39.0341 81.1207 38.8794L69.4623 27.2211C69.3077 27.0664 69.1241 26.9438 68.922 26.8601C68.7199 26.7764 68.5034 26.7333 68.2846 26.7333H33.3096C33.3096 24.9665 32.6078 23.272 31.3584 22.0226C30.1091 20.7733 28.4146 20.0714 26.6477 20.0714C24.8809 20.0714 23.1864 20.7733 21.9371 22.0226C20.6877 23.272 19.9858 24.9665 19.9858 26.7333H13.3239C12.8822 26.7333 12.4586 26.9088 12.1463 27.2211C11.8339 27.5335 11.6584 27.9571 11.6584 28.3988V68.3702H14.9894V30.0643ZM69.9501 32.4195L75.9223 38.3917H69.9501V32.4195Z" fill="#124646"/>
<path d="M78.2775 111.673H66.6191V115.004H79.943C80.3847 115.004 80.8083 114.828 81.1206 114.516C81.433 114.203 81.6084 113.78 81.6084 113.338V91.6869H78.2775V111.673Z" fill="#124646"/>
<path d="M31.644 96.6833C31.2023 96.6833 30.7787 96.8588 30.4663 97.1712C30.154 97.4835 29.9785 97.9071 29.9785 98.3488V106.676C29.9785 107.118 30.154 107.542 30.4663 107.854C30.7787 108.166 31.2023 108.342 31.644 108.342H41.6369C42.0786 108.342 42.5022 108.166 42.8145 107.854C43.1269 107.542 43.3023 107.118 43.3023 106.676V98.3488C43.3023 97.9071 43.1269 97.4835 42.8145 97.1712C42.5022 96.8588 42.0786 96.6833 41.6369 96.6833H31.644ZM39.9714 105.011H33.3095V100.014H39.9714V105.011Z" fill="#FFDF6D"/>
<path d="M18.3203 86.6905H21.6513V90.0214H18.3203V86.6905Z" fill="#FFDF6D"/>
<path d="M59.9571 106.676C59.9571 102.538 57.6688 98.3488 53.2952 98.3488C48.9217 98.3488 46.6333 102.538 46.6333 106.676C46.6333 107.61 46.2738 108.011 45.4604 108.831C44.5496 109.748 43.3024 111.004 43.3024 113.386C43.2976 114.545 43.6165 115.682 44.2232 116.669H26.6476V95.0179C26.6476 94.5761 26.4722 94.1525 26.1598 93.8402C25.8475 93.5279 25.4239 93.3524 24.9821 93.3524H14.9893C14.5476 93.3524 14.124 93.5279 13.8116 93.8402C13.4993 94.1525 13.3238 94.5761 13.3238 95.0179V116.669H8.32738V87.2592L28.3131 78.5155L48.2988 87.2592V96.6833H51.6298V88.7165L54.2931 89.8824C54.5466 89.9933 54.8238 90.0393 55.0995 90.0162C55.3753 89.9932 55.641 89.9018 55.8725 89.7503C56.1041 89.5988 56.2943 89.392 56.4259 89.1485C56.5574 88.9051 56.6263 88.6327 56.6262 88.356V80.0286C56.6262 79.7048 56.5318 79.388 56.3546 79.117C56.1774 78.846 55.925 78.6326 55.6284 78.5028L28.9807 66.8445C28.7702 66.7523 28.5429 66.7048 28.3131 66.7048C28.0833 66.7048 27.856 66.7523 27.6454 66.8445L0.997828 78.5028C0.701193 78.6326 0.448826 78.846 0.271607 79.117C0.0943879 79.388 2.5127e-06 79.7048 0 80.0286V88.356C2.14706e-06 88.6326 0.0689311 88.9049 0.200561 89.1483C0.33219 89.3917 0.522373 89.5984 0.753928 89.7498C0.985483 89.9012 1.25112 89.9926 1.52683 90.0156C1.80254 90.0387 2.07965 89.9927 2.33312 89.8817L4.99643 88.7165V116.669H0V120H56.6262C57.9555 120 59.5454 119.402 60.7753 118.439C61.5569 117.849 62.1907 117.085 62.6267 116.208C63.0628 115.332 63.2892 114.365 63.2881 113.386C63.2881 111.004 62.0409 109.748 61.1303 108.831C60.3165 108.011 59.9571 107.61 59.9571 106.676ZM3.33095 85.8094V81.1178L28.3131 70.1881L53.2952 81.1178V85.8094L51.6298 85.0808V85.025H51.5024L28.9807 75.1718C28.7702 75.0797 28.5429 75.0322 28.3131 75.0322C28.0833 75.0322 27.856 75.0797 27.6454 75.1718L5.12384 85.025H4.99643V85.0808L3.33095 85.8094ZM16.6548 96.6833H23.3167V116.669H16.6548V96.6833ZM56.6262 116.669H49.9643C49.047 116.669 46.6333 115.66 46.6333 113.386C46.6333 112.418 46.9983 112.009 47.8242 111.178C48.7273 110.268 49.9643 109.022 49.9643 106.676C49.9643 102.724 52.1432 101.68 53.2952 101.68C55.93 101.68 56.6262 104.948 56.6262 106.676C56.6262 109.022 57.863 110.268 58.7661 111.178C59.5918 112.01 59.9569 112.418 59.9569 113.386C59.9571 115.66 57.5422 116.669 56.6262 116.669Z" fill="#124646"/>
<path d="M94.1935 64.7234L98.13 58.9024C98.501 58.3589 98.761 57.7476 98.8951 57.1034C99.0292 56.4592 99.0347 55.7949 98.9114 55.1486C98.788 54.5023 98.5382 53.8867 98.1763 53.3371C97.8144 52.7876 97.3475 52.315 96.8025 51.9464C96.2574 51.5778 95.6449 51.3205 95.0002 51.1892C94.3554 51.058 93.6911 51.0554 93.0453 51.1816C92.3995 51.3077 91.785 51.5602 91.2371 51.9246C90.6892 52.2889 90.2186 52.7578 89.8524 53.3045L62.7951 93.313C62.6506 93.5272 62.5579 93.7721 62.5244 94.0283L61.5516 101.413C61.5112 101.719 61.5571 102.031 61.6839 102.313C61.8108 102.595 62.0137 102.836 62.2699 103.01C62.5261 103.183 62.8254 103.281 63.1344 103.294C63.4434 103.307 63.7499 103.233 64.0194 103.082L70.5106 99.4293C70.7357 99.3025 70.9282 99.125 71.0727 98.9109L92.2701 67.5674L94.5628 70.1233L87.8272 80.0831L90.5863 81.949L98.0505 70.9121C98.2585 70.6045 98.3578 70.2361 98.3324 69.8656C98.3071 69.495 98.1586 69.1436 97.9106 68.8671L94.1935 64.7234ZM92.6113 55.1705C92.7334 54.9883 92.8902 54.832 93.0729 54.7106C93.2555 54.5892 93.4604 54.5051 93.6756 54.463C93.8909 54.421 94.1123 54.4219 94.3272 54.4657C94.5421 54.5094 94.7462 54.5952 94.9279 54.7181C95.1096 54.841 95.2652 54.9985 95.3858 55.1817C95.5064 55.3648 95.5896 55.57 95.6308 55.7854C95.6719 56.0009 95.67 56.2223 95.6253 56.437C95.5806 56.6517 95.494 56.8555 95.3703 57.0366L91.9003 62.1675L89.6076 59.6117L92.6113 55.1705ZM68.5343 96.7193L65.2885 98.5453L65.775 94.8531L70.2198 88.281L72.979 90.1469L68.5343 96.7193ZM74.845 87.3879L72.0857 85.5217L87.685 62.4548L89.9773 65.0116L74.845 87.3879Z" fill="#FFDF6D"/>
<path d="M24.9822 46.7191H28.3131V50.05H24.9822V46.7191Z" fill="#124646"/>
<path d="M31.644 46.7191H71.6155V50.05H31.644V46.7191Z" fill="#124646"/>
<path d="M21.6511 53.3809H71.6154V56.7119H21.6511V53.3809Z" fill="#124646"/>
<path d="M21.6511 60.0428H71.6154V63.3738H21.6511V60.0428Z" fill="#124646"/>
<path d="M46.6333 66.7048H71.6154V70.0357H46.6333V66.7048Z" fill="#124646"/>
<path d="M59.957 73.3666H64.9535V76.6976H59.957V73.3666Z" fill="#124646"/>
</svg>
