<svg width="147" height="120" viewBox="0 0 147 120" fill="none" xmlns="http://www.w3.org/2000/svg">
<circle cx="100.5" cy="46.5" r="46.5" fill="#FFF7DB"/>
<path d="M106.126 110.42H75.7891V76.251C75.7891 75.3692 75.0744 74.6543 74.1924 74.6543H63.0156V59.3206C63.0156 58.4388 62.301 57.724 61.4189 57.724C60.5369 57.724 59.8223 58.4388 59.8223 59.3206V110.42H56.6289V104.348C56.6289 103.235 55.7237 102.33 54.6111 102.33H36.7187C35.6062 102.33 34.701 103.235 34.701 104.348V110.42H31.5076V98.7109H52.0515C53.1667 98.7109 54.074 97.8036 54.074 96.6885V91.1533C54.074 90.0382 53.1667 89.1309 52.0515 89.1309H31.5078V85.9375H52.0518C53.1669 85.9375 54.0742 85.0302 54.0742 83.915V78.3799C54.0742 77.2648 53.1669 76.3574 52.0518 76.3574H31.5078V73.1641H52.0518C53.1669 73.1641 54.0742 72.2567 54.0742 71.1416V65.6064C54.0742 64.4913 53.1669 63.584 52.0518 63.584H31.5078V60.3906H52.0518C53.1669 60.3906 54.0742 59.4833 54.0742 58.3682V52.833C54.0742 51.7179 53.1669 50.8105 52.0518 50.8105H31.5078V46.7656H59.8223V51.7877C59.8223 52.6695 60.5369 53.3844 61.4189 53.3844C62.301 53.3844 63.0156 52.6695 63.0156 51.7877V45.1689C63.0156 44.2872 62.301 43.5723 61.4189 43.5723H54.9258V38.7822C54.9258 37.9004 54.2111 37.1855 53.3291 37.1855H48.9648V31.6357C48.9648 30.9025 48.4656 30.2636 47.7541 30.0865L31.5078 26.0386V12.5967C31.5078 11.7149 30.7931 11 29.9111 11C29.0291 11 28.3145 11.7149 28.3145 12.5967V74.6543H17.1377C16.2557 74.6543 15.541 75.3692 15.541 76.251V110.42H2.87402C1.28927 110.42 0 111.709 0 113.294C0 116.992 3.00836 120 6.70605 120H67.8057C68.6877 120 69.4023 119.285 69.4023 118.403C69.4023 117.522 68.6877 116.807 67.8057 116.807H6.70605C4.87669 116.807 3.36942 115.401 3.20762 113.613H105.792C105.63 115.401 104.123 116.807 102.294 116.807H75.5325C74.6505 116.807 73.9359 117.522 73.9359 118.403C73.9359 119.285 74.6505 120 75.5325 120H102.294C105.992 120 109 116.992 109 113.294C109 111.709 107.711 110.42 106.126 110.42ZM50.8809 92.3242V95.5176H31.5078V92.3242H50.8809ZM50.8809 79.5508V82.7441H31.5078V79.5508H50.8809ZM50.8809 66.7773V69.9707H31.5078V66.7773H50.8809ZM50.8809 54.0039V57.1973H31.5078V54.0039H50.8809ZM51.7324 43.5723H31.5078V40.3789H51.7324V43.5723ZM45.7715 37.1855H31.5078V29.3295L45.7715 32.8832V37.1855ZM18.7344 84.2344H21.9277V87.4277H18.7344V84.2344ZM18.7344 97.0078H21.9277V100.201H18.7344V97.0078ZM18.7344 103.395H23.0986C24.2138 103.395 25.1211 102.487 25.1211 101.372V95.8369C25.1211 94.7218 24.2138 93.8145 23.0986 93.8145H18.7344V90.6211H23.0986C24.2138 90.6211 25.1211 89.7138 25.1211 88.5986V83.0635C25.1211 81.9484 24.2138 81.041 23.0986 81.041H18.7344V77.8477H28.3145V110.42H18.7344V103.395ZM72.5957 100.201H69.4023V97.0078H72.5957V100.201ZM72.5957 87.4277H69.4023V84.2344H72.5957V87.4277ZM37.8945 110.42V105.523H53.4355V110.42H37.8945ZM63.0156 110.42V77.8477H72.5957V81.041H68.2314C67.1163 81.041 66.209 81.9484 66.209 83.0635V88.5986C66.209 89.7138 67.1163 90.6211 68.2314 90.6211H72.5957V93.8145H68.2314C67.1163 93.8145 66.209 94.7218 66.209 95.8369V101.372C66.209 102.487 67.1163 103.395 68.2314 103.395H72.5957V110.42H63.0156Z" fill="#5B4700"/>
<path d="M84.319 39.2689C89.1229 39.2689 93.0313 35.3686 93.0313 30.5743C93.0313 29.6925 92.3167 28.9776 91.4347 28.9776C90.5526 28.9776 89.838 29.6925 89.838 30.5743C89.838 33.6078 87.3623 36.0756 84.319 36.0756C81.2757 36.0756 78.8 33.6078 78.8 30.5743C78.8 27.5408 81.2757 25.0728 84.319 25.0728C85.4531 25.0728 86.542 25.4127 87.4683 26.0557C88.1927 26.5589 89.1878 26.379 89.6904 25.6548C90.1933 24.9305 90.0138 23.9355 89.2894 23.4326C87.8257 22.4165 86.1071 21.8794 84.3188 21.8794C79.5149 21.8794 75.6064 25.78 75.6064 30.5743C75.6064 35.3686 79.5151 39.2689 84.319 39.2689Z" fill="#248C8C"/>
<path d="M69.6534 32.4707C68.8826 33.0712 67.9037 33.9971 67.2184 34.6681C66.0217 35.8397 65.7712 37.6692 66.6093 39.1175L68.0525 41.6107C68.8883 43.0545 70.5957 43.7515 72.2049 43.3051C73.1323 43.0479 74.4284 42.6645 75.3359 42.2985C75.4622 42.2474 75.6127 42.2596 75.7374 42.3315L78.4077 43.8695C78.5318 43.9408 78.6172 44.0643 78.6361 44.199C78.7722 45.1628 79.0862 46.4708 79.3259 47.3983C79.7444 49.0174 81.2036 50.1482 82.8744 50.1482H85.7644C87.4349 50.1482 88.8941 49.0176 89.313 47.3983C89.5525 46.4716 89.8665 45.1643 90.0026 44.199C90.0217 44.064 90.1071 43.941 90.231 43.8695L92.9011 42.3315C93.0261 42.2598 93.1759 42.2474 93.303 42.2983C94.2108 42.6645 95.5069 43.0477 96.434 43.3049C98.0435 43.7515 99.7508 43.0543 100.586 41.6107L102.029 39.1177C102.868 37.6697 102.617 35.8401 101.42 34.6681C100.734 33.9964 99.7547 33.0699 98.9853 32.4707C98.8786 32.3874 98.8148 32.2527 98.8148 32.1102V29.0382C98.8148 28.8958 98.8786 28.7608 98.9853 28.6778C99.7545 28.0785 100.734 27.152 101.42 26.4803C102.617 25.3088 102.868 23.479 102.029 22.0311L100.586 19.5378C99.7508 18.0939 98.0439 17.3974 96.434 17.8434C95.5069 18.1005 94.2108 18.4837 93.3028 18.8499C93.1761 18.9008 93.0258 18.8884 92.9013 18.8169L90.231 17.2788C90.1069 17.2075 90.0215 17.0842 90.0026 16.9494C89.8663 15.9842 89.5525 14.6768 89.3128 13.7497C88.8941 12.1307 87.4347 11 85.7641 11H82.8742C81.2034 11 79.7442 12.1309 79.3257 13.7499C79.086 14.6775 78.7718 15.9855 78.6359 16.949C78.617 17.0842 78.5316 17.2073 78.4077 17.2788L75.737 18.8169C75.6125 18.8889 75.4626 18.9012 75.3357 18.8499C74.4281 18.484 73.1321 18.1005 72.2047 17.8434C70.5953 17.3969 68.8879 18.0937 68.0523 19.5376L66.6091 22.0309C65.7709 23.479 66.0215 25.3086 67.2182 26.4801C67.9037 27.1512 68.8823 28.077 69.6532 28.6776C69.7601 28.7608 69.824 28.8956 69.824 29.0382V32.1102C69.8237 32.2527 69.7601 32.3872 69.6534 32.4707ZM71.6159 26.1589C71.1062 25.7618 70.3379 25.0655 69.452 24.1984C69.2988 24.0483 69.2662 23.815 69.3728 23.6308L70.816 21.1374C70.9233 20.9522 71.1424 20.8628 71.3514 20.9207C72.5502 21.253 73.541 21.5694 74.1412 21.8114C75.1858 22.2327 76.3484 22.1499 77.3309 21.5841L80.0014 20.0461C80.9854 19.4794 81.6402 18.5131 81.798 17.395C81.8878 16.7583 82.1077 15.7477 82.4175 14.5491C82.4718 14.3396 82.6593 14.1934 82.8742 14.1934H85.7641C85.979 14.1934 86.1669 14.3398 86.221 14.5489C86.5306 15.7464 86.7505 16.7572 86.8403 17.3952C86.9981 18.5129 87.6529 19.4792 88.6371 20.0459L91.3074 21.5839C92.2899 22.1495 93.4523 22.2325 94.4969 21.8112C95.0973 21.5692 96.0883 21.2528 97.2869 20.9203C97.4957 20.8626 97.715 20.9518 97.8223 21.137L99.2655 23.6306C99.3719 23.8147 99.3395 24.0481 99.1863 24.1979C98.2994 25.0661 97.5308 25.7625 97.0222 26.1587C96.1317 26.8527 95.6212 27.902 95.6212 29.038V32.11C95.6212 33.246 96.1317 34.2956 97.0224 34.9894C97.5308 35.3856 98.2994 36.0817 99.1861 36.9499C99.3393 37.1 99.3719 37.3333 99.2652 37.5177L97.8223 40.0108C97.715 40.196 97.4959 40.2854 97.2869 40.2275C96.0881 39.8952 95.0973 39.5789 94.4971 39.3368C93.4525 38.9155 92.2899 38.9985 91.3074 39.5642L88.6369 41.1021C87.6529 41.669 86.9981 42.6353 86.8403 43.7528V43.753C86.7505 44.3908 86.5306 45.4016 86.2212 46.5987C86.1669 46.8084 85.9789 46.9547 85.7644 46.9547H82.8742C82.6593 46.9547 82.4716 46.8084 82.4175 46.5991C82.1077 45.4006 81.8878 44.3898 81.798 43.7528C81.6402 42.6351 80.9856 41.669 80.0014 41.1021L77.3309 39.5642C76.7625 39.2367 76.134 39.0711 75.5028 39.0711C75.043 39.0711 74.5814 39.1593 74.1412 39.3368C73.5412 39.5789 72.5502 39.8952 71.3514 40.2278C71.1426 40.2852 70.9233 40.1962 70.816 40.0108L69.3728 37.5179C69.2662 37.3335 69.2988 37.1002 69.4523 36.9501C70.3379 36.083 71.1064 35.3866 71.6159 34.9896C72.5066 34.2958 73.0171 33.2462 73.0171 32.1102V29.0382C73.0171 27.9025 72.5066 26.8529 71.6159 26.1589Z" fill="#5B4700"/>
</svg>
