<svg width="149" height="109" viewBox="0 0 149 109" fill="none" xmlns="http://www.w3.org/2000/svg">
<circle cx="102.5" cy="46.5" r="46.5" fill="#EFFFFF"/>
<path d="M90.4454 84.8448C91.8625 86.2555 94.1534 86.2555 95.5706 84.8448L102.004 78.4319C103.419 77.008 103.419 74.7086 102.004 73.2848L94.4409 65.7132V45.4338C94.4409 43.4277 92.8147 41.8014 90.8086 41.8014H81.7277C79.7216 41.8014 78.0954 43.4277 78.0954 45.4338V49.3676L72.2981 43.5704C79.667 36.3358 81.9285 25.363 78.0206 15.8043C74.1127 6.2457 64.8117 0 54.4851 0C44.1584 0 34.8574 6.2457 30.9495 15.8043C27.0416 25.363 29.3031 36.3358 36.672 43.5704L6.95933 73.2812C5.54285 74.7052 5.54285 77.006 6.95933 78.43L13.3904 84.8448C14.808 86.258 17.1017 86.258 18.5193 84.8448L19.9722 83.3918V105.368H12.713C11.7099 105.368 10.8968 106.181 10.8968 107.184C10.8968 108.187 11.7099 109 12.713 109H96.2571C97.2602 109 98.0733 108.187 98.0733 107.184C98.0733 106.181 97.2602 105.368 96.2571 105.368H88.9924V83.3918L90.4454 84.8448ZM81.7277 45.4338H90.8086V62.0808L81.7277 52.9999V45.4338ZM99.4427 75.8583L93.0189 82.2713L88.4675 77.7217L88.4476 77.7072L60.7908 50.0596C63.9354 49.2522 66.8952 47.8469 69.5085 45.9205L99.4427 75.8583ZM32.6909 25.4558C32.6909 13.4192 42.4485 3.66169 54.4851 3.66169C66.5216 3.66169 76.2792 13.4192 76.2792 25.4558C76.2792 37.4924 66.5216 47.2499 54.4851 47.2499C42.4539 47.2369 32.7039 37.487 32.6909 25.4558ZM15.9567 82.2694L9.52922 75.8493L39.458 45.9205C42.0712 47.8471 45.031 49.2523 48.1756 50.0596L20.5225 77.6981L20.488 77.7326L15.9567 82.2694ZM47.2203 105.368V98.1029C47.2203 94.0907 50.4729 90.8382 54.4851 90.8382C58.4972 90.8382 61.7498 94.0907 61.7498 98.1029V105.368H47.2203ZM85.3601 105.368H65.3821V98.1029C65.3821 92.0846 60.5033 87.2058 54.4851 87.2058C48.4668 87.2058 43.588 92.0846 43.588 98.1029V105.368H23.61V79.7595L52.5908 50.786C53.2192 50.8332 53.8458 50.8823 54.4851 50.8823C55.1243 50.8823 55.7564 50.8332 56.3793 50.786L85.3601 79.7595V105.368Z" fill="#124646"/>
<path d="M1.81618 109H5.44853C6.45158 109 7.26471 108.187 7.26471 107.184C7.26471 106.181 6.45158 105.368 5.44853 105.368H1.81618C0.81313 105.368 0 106.181 0 107.184C0 108.187 0.81313 109 1.81618 109Z" fill="#FFDF6D"/>
<path d="M103.522 109H107.154C108.157 109 108.97 108.187 108.97 107.184C108.97 106.181 108.157 105.368 107.154 105.368H103.522C102.519 105.368 101.706 106.181 101.706 107.184C101.706 108.187 102.519 109 103.522 109Z" fill="#FFDF6D"/>
<path d="M49.0366 31.8123C49.0366 30.8093 48.2235 29.9961 47.2205 29.9961C46.2174 29.9961 45.4043 30.8093 45.4043 31.8123C45.5796 35.8835 48.6341 39.2502 52.669 39.8198V39.9851C52.669 40.9882 53.4821 41.8013 54.4852 41.8013C55.4882 41.8013 56.3014 40.9882 56.3014 39.9851V39.8198C60.3363 39.2502 63.3907 35.8835 63.5661 31.8123C63.3907 27.7412 60.3363 24.3744 56.3014 23.8048V14.8383C58.3225 15.2968 59.8008 17.0309 59.9337 19.0991C59.9337 20.1021 60.7468 20.9153 61.7499 20.9153C62.7529 20.9153 63.5661 20.1021 63.5661 19.0991C63.3907 15.0279 60.3363 11.6612 56.3014 11.0916V10.9263C56.3014 9.92324 55.4882 9.11011 54.4852 9.11011C53.4821 9.11011 52.669 9.92324 52.669 10.9263V11.0916C48.6341 11.6612 45.5796 15.0279 45.4043 19.0991C45.5796 23.1702 48.6341 26.537 52.669 27.1066V36.0731C50.6479 35.6146 49.1696 33.8805 49.0366 31.8123ZM59.9337 31.8123C59.8008 33.8805 58.3225 35.6146 56.3014 36.0731V27.5516C58.3225 28.0101 59.8008 29.7441 59.9337 31.8123ZM49.0366 19.0991C49.1696 17.0309 50.6479 15.2968 52.669 14.8383V23.3598C50.6479 22.9013 49.1696 21.1673 49.0366 19.0991Z" fill="#FFDF6D"/>
<path d="M45.4046 61.7793C44.4015 61.7793 43.5884 62.5924 43.5884 63.5955V81.7573C43.5884 82.7603 44.4015 83.5734 45.4046 83.5734H63.5663C64.5694 83.5734 65.3825 82.7603 65.3825 81.7573V63.5955C65.3825 62.5924 64.5694 61.7793 63.5663 61.7793H45.4046ZM61.7501 70.8602H56.3016V65.4117H61.7501V70.8602ZM52.6693 65.4117V70.8602H47.2207V65.4117H52.6693ZM47.2207 74.4925H52.6693V79.9411H47.2207V74.4925ZM56.3016 79.9411V74.4925H61.7501V79.9411H56.3016Z" fill="#124646"/>
<path d="M58.1177 101.735C59.1207 101.735 59.9338 100.922 59.9338 99.9189C59.9338 98.9159 59.1207 98.1028 58.1177 98.1028C57.1146 98.1028 56.3015 98.9159 56.3015 99.9189C56.3015 100.922 57.1146 101.735 58.1177 101.735Z" fill="#FFDF6D"/>
</svg>
