<svg width="70" height="61" viewBox="0 0 70 61" fill="none" xmlns="http://www.w3.org/2000/svg">
<g clip-path="url(#clip0)">
<path fill-rule="evenodd" clip-rule="evenodd" d="M22.8524 26.3783C21.9024 26.1254 21.2557 25.4621 20.3694 24.8532C19.3876 24.178 18.8735 23.708 17.9009 22.9482C9.15489 16.1157 13.2344 8.89534 19.2074 8.89534C22.7636 8.89534 27.5918 10.0074 27.5918 13.2667C27.5918 17.041 23.267 21.4085 22.8524 26.3796V26.3783ZM0.615456 13.9936V16.9074C0.615456 25.0716 9.5139 32.2602 15.1901 36.5826C17.6267 38.4373 20.5111 40.8124 22.0097 43.6097C28.2343 55.2292 15.7731 58.4515 5.00506 56.9568C3.49328 56.7477 2.14181 56.279 0.614131 56.2446L0.159668 60.2439C4.11999 61.1548 44.0876 60.616 51.6491 60.616C50.6475 59.251 50.4541 60.2307 46.5838 59.1213C40.8905 57.4903 38.4008 55.9044 34.2418 51.7845C21.9501 39.605 24.0634 18.0644 41.4522 8.17649C47.6861 4.63119 56.0467 4.43923 62.91 6.74937C65.6832 7.68267 68.1171 9.34944 69.1466 9.62348C67.9634 6.35618 56.7437 2.06025 52.823 1.16532C45.174 -0.582181 27.2473 0.153886 18.4747 0.153886C14.1513 0.153886 9.29267 2.13174 6.69572 4.04737C3.6748 6.27542 0.612806 10.1768 0.612806 13.9949L0.615456 13.9936Z" fill="white"/>
<path fill-rule="evenodd" clip-rule="evenodd" d="M38.4854 32.6755C38.4854 46.7667 54.827 53.9849 64.984 44.2832C74.5153 35.1789 68.9548 16.9729 53.9289 16.9729C49.5651 16.9729 45.2366 19.2971 43.0514 21.616C40.7644 24.0437 38.4854 28.055 38.4854 32.6768V32.6755Z" fill="#248C8C"/>
</g>
<defs>
<clipPath id="clip0">
<rect width="70" height="60.9901" fill="white"/>
</clipPath>
</defs>
</svg>
